<mxfile host="app.diagrams.net" agent="Mozilla/5.0 (Windows NT 10.0; Win64; x64) AppleWebKit/537.36 (KHTML, like Gecko) Chrome/128.0.0.0 Safari/537.36" version="24.7.7">
  <diagram name="Page-1" id="e7e014a7-5840-1c2e-5031-d8a46d1fe8dd">
    <mxGraphModel dx="1050" dy="565" grid="1" gridSize="10" guides="1" tooltips="1" connect="1" arrows="1" fold="1" page="1" pageScale="1" pageWidth="1169" pageHeight="826" background="none" math="0" shadow="0">
      <root>
        <mxCell id="0" />
        <mxCell id="1" parent="0" />
        <mxCell id="JY8lOuZRd5-_CKJqhjDM-41" value="Usuário" style="shape=umlActor;verticalLabelPosition=bottom;verticalAlign=top;html=1;outlineConnect=0;" parent="1" vertex="1">
          <mxGeometry x="210" y="383" width="30" height="60" as="geometry" />
        </mxCell>
        <mxCell id="JY8lOuZRd5-_CKJqhjDM-43" value="" style="rounded=0;whiteSpace=wrap;html=1;" parent="1" vertex="1">
          <mxGeometry x="290" y="280" width="550" height="830" as="geometry" />
        </mxCell>
        <mxCell id="JY8lOuZRd5-_CKJqhjDM-44" value="Envia questão para o chatbot" style="ellipse;whiteSpace=wrap;html=1;" parent="1" vertex="1">
          <mxGeometry x="465" y="303" width="120" height="80" as="geometry" />
        </mxCell>
        <mxCell id="JY8lOuZRd5-_CKJqhjDM-45" value="" style="endArrow=classic;html=1;rounded=0;exitX=1;exitY=0.3333333333333333;exitDx=0;exitDy=0;exitPerimeter=0;edgeStyle=orthogonalEdgeStyle;" parent="1" source="JY8lOuZRd5-_CKJqhjDM-41" target="JY8lOuZRd5-_CKJqhjDM-44" edge="1">
          <mxGeometry width="50" height="50" relative="1" as="geometry">
            <mxPoint x="520" y="590" as="sourcePoint" />
            <mxPoint x="570" y="540" as="targetPoint" />
          </mxGeometry>
        </mxCell>
        <mxCell id="JY8lOuZRd5-_CKJqhjDM-46" value="Personaliza a resposta do chatbot" style="ellipse;whiteSpace=wrap;html=1;" parent="1" vertex="1">
          <mxGeometry x="465" y="410" width="120" height="80" as="geometry" />
        </mxCell>
        <mxCell id="JY8lOuZRd5-_CKJqhjDM-47" value="Usuário visualiza histórico" style="ellipse;whiteSpace=wrap;html=1;" parent="1" vertex="1">
          <mxGeometry x="465" y="510" width="120" height="80" as="geometry" />
        </mxCell>
        <mxCell id="JY8lOuZRd5-_CKJqhjDM-48" value="Ajusta tema da interface" style="ellipse;whiteSpace=wrap;html=1;" parent="1" vertex="1">
          <mxGeometry x="465" y="610" width="120" height="80" as="geometry" />
        </mxCell>
        <mxCell id="JY8lOuZRd5-_CKJqhjDM-50" value="" style="endArrow=classic;html=1;rounded=0;exitX=1;exitY=0.3333333333333333;exitDx=0;exitDy=0;exitPerimeter=0;edgeStyle=orthogonalEdgeStyle;" parent="1" source="JY8lOuZRd5-_CKJqhjDM-41" target="JY8lOuZRd5-_CKJqhjDM-46" edge="1">
          <mxGeometry width="50" height="50" relative="1" as="geometry">
            <mxPoint x="240" y="422" as="sourcePoint" />
            <mxPoint x="570" y="620" as="targetPoint" />
          </mxGeometry>
        </mxCell>
        <mxCell id="JY8lOuZRd5-_CKJqhjDM-52" value="" style="endArrow=classic;html=1;rounded=0;exitX=1;exitY=0.3333333333333333;exitDx=0;exitDy=0;exitPerimeter=0;entryX=0;entryY=0.5;entryDx=0;entryDy=0;edgeStyle=orthogonalEdgeStyle;" parent="1" source="JY8lOuZRd5-_CKJqhjDM-41" target="JY8lOuZRd5-_CKJqhjDM-47" edge="1">
          <mxGeometry width="50" height="50" relative="1" as="geometry">
            <mxPoint x="520" y="670" as="sourcePoint" />
            <mxPoint x="570" y="620" as="targetPoint" />
          </mxGeometry>
        </mxCell>
        <mxCell id="JY8lOuZRd5-_CKJqhjDM-53" value="" style="endArrow=classic;html=1;rounded=0;exitX=1;exitY=0.3333333333333333;exitDx=0;exitDy=0;exitPerimeter=0;entryX=0;entryY=0.5;entryDx=0;entryDy=0;edgeStyle=orthogonalEdgeStyle;" parent="1" source="JY8lOuZRd5-_CKJqhjDM-41" target="JY8lOuZRd5-_CKJqhjDM-48" edge="1">
          <mxGeometry width="50" height="50" relative="1" as="geometry">
            <mxPoint x="560" y="670" as="sourcePoint" />
            <mxPoint x="610" y="620" as="targetPoint" />
          </mxGeometry>
        </mxCell>
        <mxCell id="uBrv_x0mu2H8WmfpOcEJ-1" value="Fazer download dos documentos recuperados" style="ellipse;whiteSpace=wrap;html=1;" vertex="1" parent="1">
          <mxGeometry x="465" y="700" width="120" height="80" as="geometry" />
        </mxCell>
        <mxCell id="uBrv_x0mu2H8WmfpOcEJ-2" value="Apagar conversas" style="ellipse;whiteSpace=wrap;html=1;" vertex="1" parent="1">
          <mxGeometry x="465" y="790" width="120" height="80" as="geometry" />
        </mxCell>
        <mxCell id="uBrv_x0mu2H8WmfpOcEJ-3" value="Arquivar conversas" style="ellipse;whiteSpace=wrap;html=1;" vertex="1" parent="1">
          <mxGeometry x="465" y="900" width="120" height="80" as="geometry" />
        </mxCell>
        <mxCell id="uBrv_x0mu2H8WmfpOcEJ-4" style="rounded=0;orthogonalLoop=1;jettySize=auto;html=1;exitX=1;exitY=0.3333333333333333;exitDx=0;exitDy=0;exitPerimeter=0;entryX=0;entryY=0.5;entryDx=0;entryDy=0;edgeStyle=orthogonalEdgeStyle;" edge="1" parent="1" source="JY8lOuZRd5-_CKJqhjDM-41" target="uBrv_x0mu2H8WmfpOcEJ-1">
          <mxGeometry relative="1" as="geometry">
            <mxPoint x="240" y="700" as="targetPoint" />
          </mxGeometry>
        </mxCell>
        <mxCell id="uBrv_x0mu2H8WmfpOcEJ-5" style="edgeStyle=orthogonalEdgeStyle;rounded=0;orthogonalLoop=1;jettySize=auto;html=1;exitX=1;exitY=0.3333333333333333;exitDx=0;exitDy=0;exitPerimeter=0;entryX=0;entryY=0.5;entryDx=0;entryDy=0;" edge="1" parent="1" source="JY8lOuZRd5-_CKJqhjDM-41" target="uBrv_x0mu2H8WmfpOcEJ-2">
          <mxGeometry relative="1" as="geometry" />
        </mxCell>
        <mxCell id="uBrv_x0mu2H8WmfpOcEJ-6" style="edgeStyle=orthogonalEdgeStyle;rounded=0;orthogonalLoop=1;jettySize=auto;html=1;exitX=1;exitY=0.3333333333333333;exitDx=0;exitDy=0;exitPerimeter=0;entryX=0;entryY=0.5;entryDx=0;entryDy=0;" edge="1" parent="1" source="JY8lOuZRd5-_CKJqhjDM-41" target="uBrv_x0mu2H8WmfpOcEJ-3">
          <mxGeometry relative="1" as="geometry" />
        </mxCell>
      </root>
    </mxGraphModel>
  </diagram>
</mxfile>
